<?xml version="1.0" encoding="UTF-8" standalone="no"?>
<!DOCTYPE svg PUBLIC "-//W3C//DTD SVG 1.1//EN" "http://www.w3.org/Graphics/SVG/1.1/DTD/svg11.dtd">
<svg width="100%" height="100%" viewBox="0 0 64 64" fill="none" xmlns="http://www.w3.org/2000/svg">
    <!-- Gold outline for the droplet -->
    <path d="M32 8C32 8 14 28 14 40C14 52 32 58 32 58C32 58 50 52 50 40C50 28 32 8 32 8Z" fill="#fff" stroke="#FFD700"
        stroke-width="2" />
    <!-- Water/blood droplet fill -->
    <path d="M32 10C32 10 16 28 16 40C16 50 32 56 32 56C32 56 48 50 48 40C48 28 32 10 32 10Z" fill="#D32F2F" />
    <!-- Thai flag stripes inside the droplet -->
    <!-- Red stripe (top) -->
    <rect x="20" y="28" width="24" height="3" rx="1.5" fill="#D32F2F" />
    <!-- White stripe -->
    <rect x="20" y="31" width="24" height="2" rx="1" fill="#fff" />
    <!-- Blue stripe (center) -->
    <rect x="20" y="33" width="24" height="4" rx="2" fill="#222E9B" />
    <!-- White stripe -->
    <rect x="20" y="37" width="24" height="2" rx="1" fill="#fff" />
    <!-- Red stripe (bottom) -->
    <rect x="20" y="39" width="24" height="3" rx="1.5" fill="#D32F2F" />
    <!-- Crest highlight (optional, for polish) -->
    <ellipse cx="32" cy="50" rx="6" ry="2" fill="#FFF" fill-opacity="0.3" />
</svg>